<?xml version="1.0" encoding="UTF-8" standalone="no"?>
<!-- Created with Inkscape (http://www.inkscape.org/) -->

<svg
   width="71.256355mm"
   height="100.67935mm"
   viewBox="0 0 71.256355 100.67935"
   version="1.1"
   id="svg1"
   xml:space="preserve"
   inkscape:export-batch-path="..\Pictures\svg"
   inkscape:export-batch-name="neutron"
   sodipodi:docname="drawing.svg"
   inkscape:version="1.4.2 (f4327f4, 2025-05-13)"
   xmlns:inkscape="http://www.inkscape.org/namespaces/inkscape"
   xmlns:sodipodi="http://sodipodi.sourceforge.net/DTD/sodipodi-0.dtd"
   xmlns="http://www.w3.org/2000/svg"
   xmlns:svg="http://www.w3.org/2000/svg"><sodipodi:namedview
     id="namedview1"
     pagecolor="#505050"
     bordercolor="#eeeeee"
     borderopacity="1"
     inkscape:showpageshadow="0"
     inkscape:pageopacity="0"
     inkscape:pagecheckerboard="0"
     inkscape:deskcolor="#505050"
     inkscape:document-units="mm"
     inkscape:zoom="2.0334082"
     inkscape:cx="360.23264"
     inkscape:cy="462.52396"
     inkscape:window-width="1920"
     inkscape:window-height="1009"
     inkscape:window-x="-8"
     inkscape:window-y="-8"
     inkscape:window-maximized="1"
     inkscape:current-layer="svg1" /><defs
     id="defs1" /><g
     inkscape:label="Layer 1"
     inkscape:groupmode="layer"
     id="layer1"
     transform="translate(-69.918464,-88.74955)"><path
       style="fill:#3a86ff;fill-opacity:1"
       d="m 78.377375,185.31763 c 0,-3.67975 -0.06266,-4.11328 -0.596984,-4.1305 -2.58673,-0.0598 -5.173811,-0.10414 -7.760787,-0.1521 l -0.10114,-11.47729 h 8.45891 v -8.22253 H 89.63478 v 8.22253 h 8.544834 l -0.18706,11.47729 -8.187204,0.1078 -0.19156,8.28607 h -5.618204 -5.618203 z m 9.210605,-6.14581 8.357771,-0.1924 v -7.19472 l -8.357771,-0.1924 v -8.20145 h -7.163804 v 8.20145 l -8.357771,0.1924 v 7.19472 l 8.357771,0.1924 v 8.20145 h 7.163804 z m 27.97295,-9.27144 h 22.51481 v 11.30599 h -22.51481 z m 20.80914,2.05563 H 117.2666 v 7.53733 h 19.10347 z m -22.85792,-29.38608 c -0.001,-14.20804 -0.14127,-25.42861 -0.3322,-26.59953 -1.30627,-8.01124 -9.24809,-5.50028 -9.70332,-5.3494 -1.76574,0.58526 -3.90244,2.58372 -4.771181,4.46248 -0.69515,1.50334 -0.715384,2.06837 -0.812797,22.69762 l -0.0999,21.1559 H 70.190171 V 90.073263 h 23.11148 l 0.568983,3.669007 c 0.312941,2.017954 0.642039,3.742377 0.731329,3.832052 0.08929,0.08967 0.73519,-0.375888 1.435333,-1.034584 3.214821,-3.024508 8.288954,-5.647882 13.553794,-7.007432 3.10598,-0.802063 3.85411,-0.866617 8.35777,-0.721161 3.69459,0.119325 5.59395,0.348171 7.50494,0.904237 6.38071,1.856678 10.7648,5.821784 13.32134,12.048208 2.21058,5.38385 2.17208,4.77066 2.29132,36.49102 l 0.10836,28.82412 -13.83035,0.0327 -13.83034,0.0327 z m 24.49293,-3.16145 c 0.12263,-29.64548 -0.10088,-32.6104 -2.87324,-38.11422 -1.37511,-2.729958 -4.87329,-6.153323 -7.53477,-7.373652 -7.4874,-3.433072 -17.62768,-2.64984 -25.15512,1.942972 -3.056225,1.864733 -5.287821,3.867605 -7.570683,6.79474 -1.067897,1.36927 -2.037236,2.48959 -2.154087,2.48959 -0.978413,-3.93189 -1.505665,-7.997235 -2.153387,-12.002762 l -17.132854,0.18286 v 62.011622 l 21.320845,0.181 v -18.63012 c 0,-10.4708 0.143439,-19.38974 0.327513,-20.36455 0.465902,-2.4673 1.571379,-4.63945 3.186892,-6.26194 1.870191,-1.87825 3.451551,-2.84077 6.524131,-3.12263 6.42162,-0.58908 11.449,0.75449 11.69778,7.81411 0.53308,15.12704 0.0564,31.73743 0.12579,48.78763 l 21.29128,-0.181 z"
       id="path1"
       sodipodi:nodetypes="ssccccccccccccsccccccccccccccccccccccccssssccccssssssssccccssssssccccsssssccs" /></g></svg>
